<?xml version="1.0" standalone="no"?>
<svg xmlns:xlink="http://www.w3.org/1999/xlink" id="wave" style="transform:rotate(0deg); transition: 0.3s" viewBox="0 0 1440 490" version="1.1" xmlns="http://www.w3.org/2000/svg"><defs><linearGradient id="sw-gradient-0" x1="0" x2="0" y1="1" y2="0"><stop stop-color="rgba(31, 41, 55, 1)" offset="0%"/><stop stop-color="rgba(31, 41, 55, 1)" offset="100%"/></linearGradient></defs><path style="transform:translate(0, 0px); opacity:1" fill="url(#sw-gradient-0)" d="M0,98L80,130.7C160,163,320,229,480,220.5C640,212,800,131,960,130.7C1120,131,1280,212,1440,236.8C1600,261,1760,229,1920,253.2C2080,278,2240,359,2400,351.2C2560,343,2720,245,2880,187.8C3040,131,3200,114,3360,106.2C3520,98,3680,98,3840,98C4000,98,4160,98,4320,106.2C4480,114,4640,131,4800,187.8C4960,245,5120,343,5280,326.7C5440,310,5600,180,5760,155.2C5920,131,6080,212,6240,228.7C6400,245,6560,196,6720,196C6880,196,7040,245,7200,228.7C7360,212,7520,131,7680,138.8C7840,147,8000,245,8160,253.2C8320,261,8480,180,8640,130.7C8800,82,8960,65,9120,98C9280,131,9440,212,9600,277.7C9760,343,9920,392,10080,351.2C10240,310,10400,180,10560,122.5C10720,65,10880,82,11040,138.8C11200,196,11360,294,11440,343L11520,392L11520,490L11440,490C11360,490,11200,490,11040,490C10880,490,10720,490,10560,490C10400,490,10240,490,10080,490C9920,490,9760,490,9600,490C9440,490,9280,490,9120,490C8960,490,8800,490,8640,490C8480,490,8320,490,8160,490C8000,490,7840,490,7680,490C7520,490,7360,490,7200,490C7040,490,6880,490,6720,490C6560,490,6400,490,6240,490C6080,490,5920,490,5760,490C5600,490,5440,490,5280,490C5120,490,4960,490,4800,490C4640,490,4480,490,4320,490C4160,490,4000,490,3840,490C3680,490,3520,490,3360,490C3200,490,3040,490,2880,490C2720,490,2560,490,2400,490C2240,490,2080,490,1920,490C1760,490,1600,490,1440,490C1280,490,1120,490,960,490C800,490,640,490,480,490C320,490,160,490,80,490L0,490Z"/></svg>